<svg id="Capa_1" enable-background="new 0 0 512 512" height="512" viewBox="0 0 512 512" width="512" xmlns="http://www.w3.org/2000/svg"><g><path d="m287.75 235.364c-4.142 0-7.5 3.357-7.5 7.5v24.636h-24.635c-4.142 0-7.5 3.357-7.5 7.5s3.358 7.5 7.5 7.5h25.135c7.995 0 14.5-6.505 14.5-14.5v-25.136c0-4.142-3.358-7.5-7.5-7.5zm-32.135-110.864h24.635v24.636c0 4.143 3.358 7.5 7.5 7.5s7.5-3.357 7.5-7.5v-25.136c0-7.995-6.505-14.5-14.5-14.5h-25.135c-4.142 0-7.5 3.357-7.5 7.5s3.358 7.5 7.5 7.5zm-26 62.136h24.135c6.341 0 11.5-5.159 11.5-11.5v-24.136c0-6.341-5.159-11.5-11.5-11.5h-24.135c-6.341 0-11.5 5.159-11.5 11.5v24.136c0 6.341 5.158 11.5 11.5 11.5zm3.5-32.136h17.135v17.136h-17.135zm32.135 90.5c0-4.143-3.358-7.5-7.5-7.5h-32.135c-4.142 0-7.5 3.357-7.5 7.5s3.358 7.5 7.5 7.5h32.135c4.142 0 7.5-3.357 7.5-7.5zm0-21.609v-10.526c0-4.143-3.358-7.5-7.5-7.5s-7.5 3.357-7.5 7.5v10.526c0 4.143 3.358 7.5 7.5 7.5s7.5-3.358 7.5-7.5zm-56.5-182.631c4.142 0 7.5-3.358 7.5-7.5s-3.358-7.5-7.5-7.5-7.5 3.358-7.5 7.5 3.358 7.5 7.5 7.5zm-20.865 164.604h-24.135c-6.341 0-11.5 5.159-11.5 11.5v24.136c0 6.341 5.159 11.5 11.5 11.5h24.135c6.341 0 11.5-5.159 11.5-11.5v-24.136c0-6.341-5.158-11.5-11.5-11.5zm-3.5 32.136h-17.135v-17.136h17.135zm241.947 104.843h-.074c-4.142.04-7.467 3.431-7.427 7.572l.239 24.731-20.011-28.976c-1.865-2.701-5.27-3.876-8.403-2.898-3.134.977-5.268 3.878-5.268 7.16v48.278c0 4.143 3.358 7.5 7.5 7.5s7.5-3.357 7.5-7.5v-24.22l18.972 27.473c2.145 3.102 5.749 4.413 9.179 3.346 3.489-1.089 5.743-4.318 5.743-8.301l-.452-46.738c-.039-4.117-3.39-7.427-7.498-7.427zm-74.717 5.53c-1.272-3.343-4.46-5.531-8.031-5.53h-.01c-3.501.004-6.621 2.101-7.947 5.341-.064.157-18.163 47.686-18.229 47.858-1.474 3.87.468 8.203 4.339 9.678 3.874 1.476 8.204-.47 9.678-4.34l2.683-7.045h18.828l2.651 7.024c1.476 3.923 5.872 5.799 9.665 4.368 3.875-1.462 5.832-5.789 4.369-9.665zm-11.803 30.962 3.744-9.831 3.71 9.831zm-117.149-11.463c-5.687-2.098-10.998-4.377-12.886-5.2-.555-.53-.604-1.198-.532-1.698.175-1.221 1.206-2.201 2.829-2.69 6.024-1.811 11.759 2.645 11.973 2.812 3.17 2.623 7.867 2.2 10.519-.955 2.665-3.171 2.255-7.902-.915-10.567-4.377-3.678-14.756-9.005-25.903-5.652-7.226 2.177-12.34 7.895-13.349 14.921-.952 6.629 1.923 13.006 7.502 16.643 2.664 1.736 6.058 2.948 15.572 6.46 2.857 1.055 5.78 2.912 5.414 4.966-.31 1.734-2.754 4.301-7.018 4.301-4.404 0-8.627-1.76-11.298-4.706-2.781-3.069-7.524-3.303-10.594-.521s-3.303 7.524-.521 10.594c5.548 6.122 13.718 9.634 22.413 9.634 10.899 0 20.061-7.009 21.785-16.664 1.305-7.326-1.946-16.866-14.991-21.678zm81.045 18.266c-3.174-2.661-7.904-2.248-10.566.926-.378.45-.784.869-1.206 1.245-2.162 1.926-4.95 2.902-8.285 2.902-9.2 0-16.684-7.484-16.684-16.685 0-9.199 7.484-16.684 16.684-16.684 3.345 0 6.569.983 9.324 2.845 3.433 2.318 8.095 1.416 10.413-2.017 2.319-3.433 1.416-8.095-2.017-10.413-5.244-3.543-11.372-5.415-17.72-5.415-17.471 0-31.684 14.213-31.684 31.684s14.213 31.685 31.684 31.685c7.025 0 13.34-2.317 18.262-6.701.962-.856 1.877-1.801 2.72-2.806 2.663-3.173 2.248-7.904-.925-10.566zm137.542-70.584h-71v-267.554c0-26.191-21.309-47.5-47.5-47.5h-228c-26.191 0-47.5 21.309-47.5 47.5v417c0 26.191 21.309 47.5 47.5 47.5h228c26.191 0 47.5-21.309 47.5-47.5v-31.5h71c12.958 0 23.5-10.542 23.5-23.5v-70.946c0-12.958-10.542-23.5-23.5-23.5zm8.5 94.446c0 4.687-3.813 8.5-8.5 8.5h-150.622c-4.142 0-7.5 3.357-7.5 7.5s3.358 7.5 7.5 7.5h34.622v26.5c0 4.136-3.364 7.5-7.5 7.5h-218c-4.136 0-7.5-3.364-7.5-7.5v-303.726c0-4.143-3.358-7.5-7.5-7.5s-7.5 3.357-7.5 7.5v303.726c0 12.406 10.093 22.5 22.5 22.5h218c12.407 0 22.5-10.094 22.5-22.5v-26.5h15v31.5c0 17.921-14.58 32.5-32.5 32.5h-228c-17.92 0-32.5-14.579-32.5-32.5v-417c0-17.921 14.58-32.5 32.5-32.5h228c17.92 0 32.5 14.579 32.5 32.5v267.554h-15v-262.554c0-12.406-10.093-22.5-22.5-22.5h-27.55c-8.547 0-15.5 6.953-15.5 15.5 0 3.319-2.701 6.02-6.02 6.02h-119.86c-3.319 0-6.02-2.7-6.02-6.02 0-4.145-1.611-8.038-4.556-10.983-2.935-2.913-6.822-4.517-10.944-4.517h-27.55c-12.407 0-22.5 10.094-22.5 22.5v68.274c0 4.143 3.358 7.5 7.5 7.5s7.5-3.357 7.5-7.5v-68.274c0-4.136 3.364-7.5 7.5-7.5h27.55c.141 0 .268.055.357.144.128.128.143.265.143.356 0 11.59 9.43 21.02 21.02 21.02h119.86c11.59 0 21.02-9.43 21.02-21.02 0-.275.224-.5.5-.5h27.55c4.136 0 7.5 3.364 7.5 7.5v262.554h-140.707c-12.958 0-23.5 10.542-23.5 23.5v70.946c0 12.958 10.542 23.5 23.5 23.5h71.084c4.142 0 7.5-3.357 7.5-7.5s-3.358-7.5-7.5-7.5h-71.084c-4.687 0-8.5-3.813-8.5-8.5v-70.946c0-4.687 3.813-8.5 8.5-8.5h256.707c4.687 0 8.5 3.813 8.5 8.5zm-297.5-258.5v24.136c0 6.341 5.159 11.5 11.5 11.5h24.135c6.341 0 11.5-5.159 11.5-11.5v-24.136c0-6.341-5.159-11.5-11.5-11.5h-24.135c-6.341 0-11.5 5.159-11.5 11.5zm15 3.5h17.135v17.136h-17.135zm65.865 50.865h-15v15h15zm-103.365-48.729c4.142 0 7.5-3.357 7.5-7.5v-24.636h24.635c4.142 0 7.5-3.357 7.5-7.5s-3.358-7.5-7.5-7.5h-25.135c-7.995 0-14.5 6.505-14.5 14.5v25.136c0 4.142 3.358 7.5 7.5 7.5zm39.635 118.364c0-4.143-3.358-7.5-7.5-7.5h-24.635v-24.636c0-4.143-3.358-7.5-7.5-7.5s-7.5 3.357-7.5 7.5v25.136c0 7.995 6.505 14.5 14.5 14.5h25.135c4.142 0 7.5-3.357 7.5-7.5z"/></g></svg>